<?xml version="1.0" standalone="no"?>
<!DOCTYPE svg PUBLIC "-//W3C//DTD SVG 20010904//EN"
 "http://www.w3.org/TR/2001/REC-SVG-20010904/DTD/svg10.dtd">
<svg version="1.0" xmlns="http://www.w3.org/2000/svg"
 width="1200.000000pt" height="461.000000pt" viewBox="0 0 1200.000000 461.000000"
 preserveAspectRatio="xMidYMid meet">

<g transform="translate(0.000000,461.000000) scale(0.100000,-0.100000)"
fill="white" stroke="none">
<path d="M2157 4273 c-4 -3 -7 -865 -7 -1915 l0 -1908 1920 0 1920 0 -2 1912
-3 1913 -1911 3 c-1051 1 -1914 -1 -1917 -5z m3119 -1066 l124 -138 0 151 0
150 69 0 70 0 5 -52 c3 -29 10 -199 16 -378 5 -179 13 -358 16 -397 l5 -73
-74 0 -74 0 -6 107 c-4 58 -7 138 -7 176 l0 71 -95 97 -95 96 0 -273 0 -274
-75 0 -75 0 0 428 c1 235 4 447 7 471 l6 44 30 -34 c16 -19 86 -96 153 -172z
m-2353 144 c99 -48 150 -150 151 -301 1 -98 -13 -145 -70 -231 -16 -24 -15
-30 40 -178 31 -83 56 -156 56 -161 0 -6 -35 -10 -78 -10 l-78 0 -45 138 c-37
116 -47 137 -64 137 -19 0 -20 -8 -23 -137 l-3 -138 -74 0 -75 0 0 448 c0 247
3 452 8 456 4 5 52 6 108 4 78 -4 111 -10 147 -27z m369 -334 c3 -327 5 -366
21 -390 17 -27 49 -35 75 -19 27 18 32 86 32 425 l0 348 73 -3 72 -3 3 -310
c1 -172 -2 -345 -7 -387 -19 -144 -73 -206 -184 -215 -115 -10 -191 46 -216
157 -6 26 -11 195 -11 403 l0 357 69 0 69 0 4 -363z m1156 -94 l2 -453 -75 0
-75 0 0 448 c0 247 3 452 7 456 4 4 37 6 73 4 l65 -3 3 -452z m550 54 c7 -216
12 -418 12 -450 l0 -58 -72 3 -73 3 -6 155 c-4 85 -7 185 -8 223 l-1 67 -74 0
-75 0 -6 -52 c-6 -52 -35 -376 -35 -390 0 -5 -34 -8 -76 -8 l-76 0 6 53 c3 28
17 183 31 342 28 306 41 380 81 433 43 55 75 66 214 72 69 3 130 4 135 2 7 -2
15 -140 23 -395z m-1108 329 c0 -63 -1 -65 -29 -71 -37 -8 -56 -30 -72 -83
l-13 -44 74 -141 c64 -125 74 -150 78 -208 12 -165 -92 -298 -224 -287 l-39 3
-3 73 -3 72 36 0 c50 0 71 14 85 56 18 53 6 95 -71 244 -96 185 -101 253 -29
362 37 56 96 88 163 88 l47 0 0 -64z m300 1 c0 -60 -1 -63 -29 -74 -42 -15
-66 -58 -65 -114 0 -37 11 -66 56 -145 74 -130 92 -188 85 -266 -12 -135 -91
-225 -205 -235 l-62 -6 0 77 0 76 39 0 c55 0 81 34 81 105 0 45 -10 72 -75
200 -67 133 -75 153 -75 204 2 137 90 241 208 241 l42 0 0 -63z m-159 -1067
c115 -34 227 -136 279 -252 119 -269 -55 -586 -349 -639 -297 -53 -573 214
-532 514 21 150 119 286 255 352 113 56 218 63 347 25z m-909 -23 c82 -40 143
-112 169 -199 52 -169 -13 -333 -158 -405 -47 -23 -72 -27 -164 -31 l-108 -5
-3 -106 -3 -106 -97 -3 -98 -3 0 446 0 446 203 -3 c198 -3 203 -4 259 -31z
m1668 -52 l0 -85 -29 0 c-15 0 -40 -9 -55 -21 -21 -16 -26 -29 -26 -63 0 -35
11 -60 66 -145 82 -128 98 -173 92 -255 -6 -75 -33 -130 -87 -179 -47 -42 -93
-57 -179 -57 l-63 0 3 88 3 87 49 6 c56 6 76 26 76 75 0 42 -11 67 -83 186
-75 125 -91 174 -84 245 13 127 104 203 244 203 l73 0 0 -85z m790 0 l0 -85
-110 0 -110 0 0 -360 0 -360 -100 0 -100 0 0 360 0 360 -105 0 -105 0 0 85 0
85 315 0 315 0 0 -85z"/>
<path d="M2810 3051 c0 -143 3 -190 13 -194 23 -8 56 15 74 52 25 50 26 222 1
268 -24 43 -46 63 -69 63 -18 0 -19 -9 -19 -189z"/>
<path d="M4767 3210 c-27 -21 -47 -74 -47 -122 0 -28 1 -28 63 -28 l62 0 -3
85 c-3 81 -5 85 -26 85 -13 0 -35 -9 -49 -20z"/>
<path d="M3785 2066 c-104 -49 -160 -142 -159 -266 0 -97 28 -164 94 -223 108
-97 250 -90 348 18 113 124 110 298 -8 415 -83 84 -177 103 -275 56z"/>
<path d="M2860 1915 l0 -185 70 0 c83 0 119 15 149 64 44 71 37 173 -17 245
-31 42 -77 61 -147 61 l-55 0 0 -185z"/>
<path d="M6240 2358 l0 -1918 1915 0 1915 0 0 1918 0 1917 -1915 0 -1915 0 0
-1917z m3605 2 l0 -1685 -1692 -3 -1693 -2 0 1683 c0 926 3 1687 7 1690 3 4
765 6 1692 5 l1686 -3 0 -1685z"/>
<path d="M8140 3656 c0 -8 -8 -17 -17 -19 -17 -4 -17 -5 0 -6 10 -1 17 -9 17
-21 0 -11 5 -20 10 -20 6 0 10 9 10 19 0 11 8 22 18 24 16 4 16 5 0 6 -10 0
-18 8 -18 16 0 8 -4 15 -10 15 -5 0 -10 -6 -10 -14z"/>
<path d="M8131 3566 c-9 -10 -7 -25 7 -62 l19 -47 16 48 c13 36 14 52 6 62
-15 17 -33 17 -48 -1z"/>
<path d="M8090 3569 c0 -17 29 -152 34 -156 11 -11 6 41 -8 96 -12 44 -26 77
-26 60z"/>
<path d="M8201 3535 c-19 -67 -26 -129 -13 -121 7 4 12 19 12 34 0 15 5 44 11
65 6 21 8 44 6 50 -2 7 -9 -6 -16 -28z"/>
<path d="M6854 3538 c-4 -13 -7 -59 -7 -104 0 -66 5 -91 26 -138 56 -122 212
-283 334 -345 23 -11 44 -21 47 -21 3 0 -6 16 -19 36 -14 20 -25 42 -25 48 0
7 -39 47 -86 90 -89 82 -148 160 -160 211 l-7 30 47 -44 c25 -25 78 -87 118
-139 54 -69 74 -88 76 -74 3 21 -88 186 -150 270 -54 73 -168 202 -178 202 -5
0 -12 -10 -16 -22z"/>
<path d="M9399 3523 c-94 -100 -172 -208 -248 -342 -68 -120 -48 -126 41 -13
81 102 154 179 163 171 3 -3 -7 -30 -22 -60 -18 -37 -58 -85 -129 -155 -57
-56 -104 -105 -104 -111 0 -6 -11 -27 -25 -47 -13 -20 -22 -36 -19 -36 3 0 24
10 47 21 124 63 277 222 334 346 21 46 26 71 26 137 0 81 -8 126 -22 126 -4 0
-23 -17 -42 -37z"/>
<path d="M8027 3543 c-12 -11 -8 -40 14 -89 24 -58 22 -56 42 -48 17 6 15 47
-5 112 -9 30 -34 43 -51 25z"/>
<path d="M8236 3533 c-21 -69 -26 -117 -14 -125 7 -4 16 -8 19 -8 11 0 51 107
47 127 -4 25 -45 30 -52 6z"/>
<path d="M7608 3474 c-16 -8 -28 -21 -28 -29 0 -17 21 -11 70 22 33 22 33 23
10 23 -14 -1 -37 -8 -52 -16z"/>
<path d="M7820 3476 c0 -8 -8 -17 -17 -19 -17 -4 -17 -5 0 -6 10 -1 17 -9 17
-21 0 -11 5 -20 10 -20 6 0 10 9 10 19 0 11 6 22 13 24 10 4 10 6 0 6 -7 1
-13 8 -13 16 0 8 -4 15 -10 15 -5 0 -10 -6 -10 -14z"/>
<path d="M8470 3476 c0 -8 -6 -17 -12 -19 -10 -4 -10 -6 0 -6 6 -1 12 -10 12
-21 0 -11 5 -20 10 -20 6 0 10 9 10 19 0 11 8 22 18 24 16 4 16 5 0 6 -10 0
-18 8 -18 16 0 8 -4 15 -10 15 -5 0 -10 -6 -10 -14z"/>
<path d="M8652 3470 c39 -30 78 -43 78 -25 0 17 -50 45 -81 45 -21 0 -21 0 3
-20z"/>
<path d="M7668 3415 c-34 -65 -35 -86 -7 -111 21 -19 22 -19 15 2 -4 14 3 40
19 73 24 46 27 92 7 91 -4 0 -19 -25 -34 -55z"/>
<path d="M8595 3450 c-4 -13 3 -39 20 -71 17 -34 24 -58 19 -72 -7 -22 -6 -22
15 -3 28 25 27 46 -6 111 -31 60 -38 65 -48 35z"/>
<path d="M7531 3431 c-12 -8 -12 -16 2 -53 9 -24 17 -66 17 -93 0 -73 14 -86
30 -29 11 38 11 55 1 88 -7 23 -15 53 -18 69 -6 29 -10 32 -32 18z"/>
<path d="M8747 3413 c-3 -16 -11 -46 -18 -69 -10 -33 -10 -50 1 -89 11 -39 15
-44 21 -29 4 10 8 39 8 64 1 24 9 64 18 88 14 37 14 45 2 53 -22 14 -26 11
-32 -18z"/>
<path d="M7807 3393 c-3 -5 1 -21 8 -38 l13 -30 11 28 c6 16 9 33 5 38 -6 11
-31 12 -37 2z"/>
<path d="M8460 3391 c0 -5 5 -22 11 -38 l11 -28 12 30 c7 17 11 33 9 38 -6 10
-43 9 -43 -2z"/>
<path d="M8076 3381 c-8 -12 29 -21 86 -21 57 0 86 9 66 21 -17 11 -145 11
-152 0z"/>
<path d="M7761 3340 c13 -22 29 -40 36 -40 16 0 16 8 2 49 -8 23 -17 31 -36
31 l-24 0 22 -40z"/>
<path d="M7860 3354 c-23 -59 -2 -74 30 -21 25 40 25 47 0 47 -13 0 -24 -10
-30 -26z"/>
<path d="M8400 3373 c0 -5 9 -23 20 -40 32 -53 53 -38 30 21 -9 24 -50 39 -50
19z"/>
<path d="M8516 3363 c-2 -10 -7 -28 -11 -40 -11 -39 19 -27 44 17 l22 40 -25
0 c-15 0 -27 -7 -30 -17z"/>
<path d="M8146 3341 c-4 -5 -2 -12 3 -15 5 -4 12 -2 15 3 4 5 2 12 -3 15 -5 4
-12 2 -15 -3z"/>
<path d="M8045 3330 c-11 -4 -31 -20 -44 -34 l-24 -26 22 0 c34 0 88 26 101
49 9 18 8 21 -12 20 -13 0 -32 -4 -43 -9z m21 -26 c-22 -16 -36 -18 -36 -6 0
11 43 32 50 25 3 -3 -4 -11 -14 -19z"/>
<path d="M8210 3321 c13 -25 66 -51 102 -51 22 0 22 1 -8 30 -18 19 -45 33
-68 37 -37 6 -38 5 -26 -16z m70 -23 c0 -12 -12 -9 -32 6 -26 19 -22 27 7 14
14 -6 25 -15 25 -20z"/>
<path d="M6680 3272 c0 -123 54 -203 201 -298 75 -49 199 -106 258 -119 53
-11 28 17 -54 60 -88 47 -179 111 -230 164 -75 78 4 44 143 -63 52 -39 104
-79 118 -89 l23 -18 -10 29 c-5 16 -33 49 -62 74 -29 25 -97 87 -152 138 -90
84 -205 170 -227 170 -4 0 -8 -22 -8 -48z"/>
<path d="M7506 3304 c-18 -18 -18 -19 -2 -22 22 -5 29 2 24 24 -3 16 -4 16
-22 -2z"/>
<path d="M8780 3300 c0 -13 7 -20 20 -20 22 0 18 25 -6 34 -9 3 -14 -1 -14
-14z"/>
<path d="M9552 3281 c-33 -22 -93 -70 -134 -108 -131 -124 -173 -161 -200
-182 -14 -12 -31 -34 -36 -50 -10 -27 1 -21 110 60 125 93 176 125 186 115 17
-18 -134 -138 -253 -201 -82 -43 -107 -71 -54 -60 110 23 325 147 393 226 19
23 42 62 50 87 17 48 22 152 8 152 -5 0 -36 -18 -70 -39z"/>
<path d="M7803 3273 c15 -2 39 -2 55 0 15 2 2 4 -28 4 -30 0 -43 -2 -27 -4z"/>
<path d="M8463 3273 c15 -2 37 -2 50 0 12 2 0 4 -28 4 -27 0 -38 -2 -22 -4z"/>
<path d="M7760 3249 c0 -5 7 -27 16 -49 18 -44 49 -69 66 -52 7 7 21 3 44 -10
19 -11 34 -15 34 -9 0 6 7 11 15 11 8 0 15 4 15 10 0 5 7 7 15 4 8 -4 15 -1
15 6 0 9 7 7 25 -4 13 -9 41 -16 62 -16 l38 1 -37 20 c-39 20 -46 33 -28 44 8
5 7 11 -1 21 -8 10 -8 14 0 14 6 0 11 3 11 8 0 4 -48 4 -106 -1 -67 -6 -120
-5 -145 1 -21 5 -39 6 -39 1z m100 -47 c-38 -20 -50 -19 -50 4 0 10 12 14 43
14 l42 0 -35 -18z"/>
<path d="M8260 3248 c0 -5 5 -8 11 -8 8 0 8 -4 0 -14 -8 -10 -9 -16 -1 -21 18
-11 11 -24 -27 -44 l-38 -20 40 -1 c22 0 51 7 63 16 14 10 22 11 22 3 0 -6 7
-9 15 -5 8 3 15 1 15 -4 0 -6 7 -10 15 -10 8 0 15 -5 15 -10 0 -6 14 -4 31 5
17 9 37 14 46 11 24 -10 50 11 67 54 9 22 16 44 16 49 0 4 -22 4 -50 -2 -31
-6 -85 -6 -145 -1 -52 5 -95 6 -95 2z m240 -42 c0 -23 -13 -25 -45 -5 l-30 19
38 0 c26 0 37 -4 37 -14z"/>
<path d="M7720 3243 c0 -5 7 -18 15 -29 15 -18 15 -18 13 5 -3 23 -28 44 -28
24z"/>
<path d="M8566 3234 c-11 -28 -6 -39 9 -20 8 11 15 23 15 28 0 14 -18 9 -24
-8z"/>
<path d="M7628 3219 c-20 -11 -23 -50 -8 -80 9 -15 15 -17 30 -9 23 12 70 13
89 1 15 -10 51 -3 51 10 0 5 -17 17 -37 28 -21 10 -47 28 -57 40 -21 23 -41
26 -68 10z m62 -54 c0 -8 -4 -15 -9 -15 -13 0 -22 16 -14 24 11 11 23 6 23 -9z"/>
<path d="M8614 3209 c-10 -12 -36 -30 -56 -40 -21 -11 -38 -23 -38 -28 0 -13
36 -20 51 -10 19 12 66 11 89 -1 15 -8 21 -6 30 9 34 65 -28 123 -76 70z m28
-44 c0 -5 -5 -11 -11 -13 -6 -2 -11 4 -11 13 0 9 5 15 11 13 6 -2 11 -8 11
-13z"/>
<path d="M9032 3110 c-23 -16 -48 -40 -57 -53 -11 -18 -74 -196 -75 -215 0 -6
47 23 83 50 62 49 98 111 104 177 3 34 1 61 -4 64 -6 4 -29 -7 -51 -23z"/>
<path d="M7223 3069 c4 -47 13 -72 35 -103 29 -41 138 -133 147 -125 2 3 -10
49 -27 104 -26 86 -37 106 -74 143 -25 23 -54 42 -66 42 -19 0 -20 -4 -15 -61z"/>
<path d="M7990 3122 c1 -4 16 -36 35 -72 33 -63 34 -64 35 -31 0 36 -31 95
-55 105 -8 3 -15 2 -15 -2z"/>
<path d="M8297 3119 c-25 -14 -47 -63 -47 -101 1 -31 3 -29 36 36 19 37 34 69
32 71 -2 2 -11 -1 -21 -6z"/>
<path d="M7752 3100 c-20 -19 -29 -59 -17 -72 3 -3 19 7 35 23 16 16 38 29 49
29 19 0 20 2 9 20 -16 26 -48 26 -76 0z"/>
<path d="M7885 3074 c27 -25 51 -41 53 -35 6 18 -17 40 -62 62 l-41 20 50 -47z"/>
<path d="M7937 3107 c-2 -7 13 -32 34 -57 44 -51 51 -38 14 27 -27 44 -39 52
-48 30z"/>
<path d="M8050 3109 c0 -14 55 -69 69 -69 19 0 12 26 -14 54 -24 26 -55 35
-55 15z"/>
<path d="M8222 3113 c-11 -4 -42 -54 -42 -68 0 -14 25 -2 51 26 40 42 36 60
-9 42z"/>
<path d="M8326 3076 c-38 -65 -32 -78 13 -26 21 25 36 50 34 57 -9 22 -20 14
-47 -31z"/>
<path d="M8429 3100 c-41 -22 -63 -44 -57 -61 2 -6 26 9 53 35 56 50 56 54 4
26z"/>
<path d="M8482 3100 c-11 -18 -10 -20 9 -20 11 0 33 -13 49 -29 32 -31 40 -30
40 6 0 29 -33 63 -63 63 -12 0 -28 -9 -35 -20z"/>
<path d="M7872 3037 c13 -12 30 -44 37 -70 17 -60 27 -66 35 -22 6 31 3 39
-33 75 -22 22 -45 40 -52 40 -6 0 -1 -10 13 -23z"/>
<path d="M8398 3020 c-37 -39 -39 -43 -31 -78 l9 -37 24 63 c16 43 31 67 49
77 20 11 22 14 8 15 -10 0 -37 -18 -59 -40z"/>
<path d="M8132 3014 c-28 -19 -28 -40 1 -87 l23 -39 24 45 c25 47 23 69 -8 86
-14 7 -25 6 -40 -5z"/>
<path d="M7400 2974 c0 -61 30 -127 76 -172 37 -36 40 -51 6 -33 -27 14 -102
14 -102 0 0 -19 22 -54 48 -76 26 -22 26 -23 5 -23 -31 0 -73 -21 -73 -36 0
-17 48 -54 70 -54 28 0 29 -10 5 -36 -33 -36 -38 -64 -12 -65 30 -2 28 -2 67
6 31 7 33 6 21 -9 -14 -17 -21 -90 -9 -102 13 -12 59 6 84 33 22 24 24 24 24
6 0 -12 8 -31 19 -44 l18 -23 27 27 26 26 25 -24 c42 -43 62 -31 56 33 -1 17
3 22 24 22 30 0 31 8 5 54 -20 33 -22 34 -57 24 -49 -13 -118 -1 -150 26 l-27
24 32 84 c47 123 43 145 -31 197 -60 43 -109 90 -145 140 l-32 44 0 -49z"/>
<path d="M8872 2970 c-18 -26 -58 -67 -89 -91 -128 -99 -131 -107 -83 -230 16
-42 27 -85 24 -97 -11 -39 -118 -65 -178 -43 -22 9 -27 6 -45 -25 -27 -45 -26
-54 4 -54 23 0 25 -4 25 -40 0 -47 18 -53 54 -17 l23 23 27 -23 c15 -13 31
-23 35 -23 10 0 31 46 31 67 0 12 6 9 24 -10 23 -25 71 -45 82 -34 8 8 9 70 1
93 -7 20 -5 20 47 16 52 -4 54 -3 49 17 -3 12 -16 31 -28 43 -26 25 -24 38 4
38 23 0 71 37 71 54 0 15 -42 36 -73 36 -21 0 -21 1 5 23 26 22 48 57 48 76 0
14 -75 14 -102 0 -34 -18 -30 -4 10 38 47 48 74 115 70 170 l-3 41 -33 -48z"/>
<path d="M7996 2959 c-17 -25 -23 -129 -7 -129 31 0 55 97 33 135 -8 16 -11
15 -26 -6z"/>
<path d="M8281 2945 c-9 -33 -8 -45 7 -74 29 -55 42 -51 42 12 0 39 -6 62 -19
78 l-19 23 -11 -39z"/>
<path d="M6560 2959 c0 -21 91 -97 154 -128 40 -20 144 -52 259 -81 106 -26
201 -51 212 -56 19 -7 19 -7 3 13 -10 11 -18 25 -18 31 0 6 -26 16 -57 22
-111 22 -253 73 -253 90 0 13 113 -10 215 -44 80 -27 104 -31 123 -23 21 10
19 12 -34 34 -91 37 -322 110 -399 127 -94 20 -205 28 -205 15z"/>
<path d="M8070 2945 c-32 -82 -38 -165 -11 -165 14 0 61 75 60 96 0 10 -9 37
-19 59 l-18 40 -12 -30z"/>
<path d="M8206 2925 c-21 -53 -17 -78 19 -120 21 -25 26 -28 35 -15 14 22 12
60 -6 116 -23 69 -29 71 -48 19z"/>
<path d="M9655 2963 c-118 -15 -392 -95 -533 -155 l-33 -14 24 -11 c20 -9 42
-5 123 22 100 34 214 58 214 45 0 -14 -115 -57 -212 -81 -54 -12 -98 -27 -98
-33 0 -5 -7 -17 -15 -26 -22 -25 384 79 469 120 66 31 156 105 156 128 0 12
-31 13 -95 5z"/>
<path d="M7177 2889 c47 -88 114 -122 188 -96 l39 14 -55 41 c-55 42 -156 92
-185 92 -12 0 -9 -11 13 -51z"/>
<path d="M9070 2914 c-30 -14 -79 -43 -109 -66 l-56 -42 44 -13 c77 -22 137 9
184 96 25 45 26 51 10 50 -10 0 -43 -11 -73 -25z"/>
<path d="M8137 2826 c-21 -32 -21 -45 0 -75 l16 -24 19 23 c23 28 23 48 0 78
l-18 24 -17 -26z"/>
<path d="M7936 2804 c-10 -14 -34 -33 -54 -41 -39 -16 -32 -35 14 -35 34 0 64
34 64 73 0 35 0 35 -24 3z"/>
<path d="M8350 2802 c0 -40 29 -74 64 -74 46 0 53 19 14 35 -19 8 -44 27 -56
42 l-22 28 0 -31z"/>
<path d="M7964 2751 c-34 -46 -82 -81 -111 -81 -12 0 -30 11 -41 25 -27 34
-32 32 -32 -14 0 -50 31 -91 70 -91 37 0 112 82 134 147 9 25 15 48 13 50 -2
1 -17 -15 -33 -36z"/>
<path d="M8016 2765 c-4 -16 -18 -52 -32 -78 -23 -44 -25 -87 -5 -87 22 0 62
129 52 167 l-8 28 -7 -30z"/>
<path d="M8276 2765 c-8 -38 34 -165 55 -165 20 0 18 43 -5 92 -13 29 -28 64
-34 78 l-9 25 -7 -30z"/>
<path d="M8316 2768 c27 -90 98 -178 144 -178 40 0 70 38 70 88 0 49 -5 51
-32 17 -11 -14 -29 -25 -40 -25 -32 0 -82 36 -113 80 -31 45 -39 50 -29 18z"/>
<path d="M7203 2764 c-37 -16 11 -67 79 -84 43 -11 118 -7 118 6 0 3 -10 19
-22 37 -13 18 -23 33 -23 33 0 5 -142 12 -152 8z"/>
<path d="M8995 2763 c-38 -4 -55 -19 -83 -74 -6 -14 68 -19 114 -9 71 16 120
68 78 84 -16 6 -33 6 -109 -1z"/>
<path d="M8078 2743 c-47 -54 -48 -90 -6 -129 24 -23 29 -25 23 -9 -16 42 -16
53 -1 90 19 45 9 76 -16 48z"/>
<path d="M8207 2746 c-4 -9 1 -32 9 -52 15 -36 15 -47 -1 -89 -6 -16 -1 -14
23 9 35 33 39 53 18 95 -21 40 -42 56 -49 37z"/>
<path d="M6610 2741 l-55 -6 45 -26 c65 -39 163 -77 228 -89 84 -15 287 -13
301 3 9 11 0 14 -47 16 -85 3 -237 32 -221 42 21 13 124 10 214 -6 95 -17 112
-18 99 -6 -16 16 -214 60 -316 71 -101 10 -156 11 -248 1z"/>
<path d="M9446 2739 c-126 -13 -327 -62 -313 -76 3 -2 47 2 98 11 100 17 196
21 217 8 18 -12 -75 -32 -181 -39 -57 -4 -86 -10 -84 -17 6 -17 280 -14 342 3
61 17 215 89 215 100 0 19 -155 25 -294 10z"/>
<path d="M8121 2697 c-27 -27 -1 -117 34 -117 35 0 62 95 33 117 -18 13 -53
14 -67 0z"/>
<path d="M7195 2647 c-17 -8 -36 -21 -43 -30 -30 -36 75 -67 158 -47 27 7 50
16 50 20 0 5 -10 20 -22 35 -28 31 -98 42 -143 22z"/>
<path d="M9013 2653 c-21 -4 -63 -46 -63 -63 0 -13 100 -33 137 -27 19 4 46
13 60 22 21 14 22 19 11 32 -27 34 -85 48 -145 36z"/>
<path d="M8006 2586 c-22 -47 -20 -76 8 -114 l24 -33 22 38 c28 47 28 77 3
111 -28 37 -38 37 -57 -2z"/>
<path d="M8251 2594 c-27 -34 -27 -73 0 -119 l21 -36 24 33 c28 37 30 67 8
114 -20 41 -26 42 -53 8z"/>
<path d="M8355 2590 c-18 -35 -13 -90 13 -130 l16 -25 18 40 c24 54 22 82 -7
116 l-24 30 -16 -31z"/>
<path d="M7912 2588 c-26 -29 -28 -59 -4 -113 l18 -40 17 25 c27 42 32 102 10
128 l-18 23 -23 -23z"/>
<path d="M9175 2582 c-3 -4 36 -12 87 -18 51 -7 107 -18 123 -25 l30 -13 -44
-4 c-25 -2 -91 4 -148 14 -110 18 -152 14 -117 -10 23 -16 92 -32 197 -46 86
-11 328 -12 366 -1 22 6 17 10 -45 38 -100 45 -132 51 -284 58 -74 4 -140 8
-147 10 -6 2 -14 1 -18 -3z"/>
<path d="M6870 2570 c-78 -8 -94 -13 -194 -58 -54 -24 -57 -27 -35 -33 13 -4
84 -7 157 -8 204 -2 436 38 416 71 -7 10 -23 9 -160 -11 -44 -7 -98 -11 -120
-9 l-39 4 30 13 c17 7 73 19 125 26 l95 13 -100 0 c-55 -1 -134 -4 -175 -8z"/>
<path d="M7809 2542 c26 -88 61 -95 61 -11 0 22 -5 29 -19 29 -11 0 -26 3 -35
6 -12 5 -14 1 -7 -24z"/>
<path d="M8468 2563 c-23 -4 -28 -9 -28 -33 0 -58 20 -77 41 -39 16 30 29 79
21 78 -4 -1 -19 -4 -34 -6z"/>
<path d="M7301 2549 c-24 -5 -53 -15 -65 -22 -26 -17 -52 -64 -42 -74 14 -14
100 -7 138 11 37 18 81 72 72 88 -6 10 -44 9 -103 -3z"/>
<path d="M8134 2549 c-29 -10 -35 -31 -18 -65 30 -58 40 -60 68 -17 15 22 24
47 21 55 -9 22 -46 37 -71 27z"/>
<path d="M8907 2553 c-10 -16 33 -71 71 -89 38 -19 124 -25 138 -11 13 13 -21
61 -57 79 -40 19 -144 34 -152 21z"/>
<path d="M7037 2460 c-143 -27 -246 -83 -290 -159 l-18 -31 53 0 c70 0 106 11
262 79 72 32 140 61 151 65 15 5 16 9 6 15 -8 5 -43 -2 -90 -19 -75 -28 -171
-48 -171 -36 0 9 99 57 170 82 78 27 58 28 -73 4z"/>
<path d="M9217 2449 c79 -28 153 -65 153 -76 0 -11 -98 10 -171 37 -47 17 -82
24 -90 19 -10 -6 -9 -10 6 -15 11 -4 79 -33 150 -65 155 -68 193 -79 263 -79
50 0 52 1 42 21 -22 40 -93 101 -146 126 -45 20 -241 64 -278 62 -6 0 26 -13
71 -30z"/>
<path d="M7338 2442 c-56 -32 -60 -42 -25 -60 20 -10 36 -10 66 -2 39 10 101
53 101 70 0 4 -18 8 -40 8 -22 0 -43 3 -47 5 -5 3 -29 -7 -55 -21z"/>
<path d="M7864 2458 c-4 -6 1 -17 11 -25 28 -20 36 -16 23 12 -12 27 -23 31
-34 13z"/>
<path d="M7953 2437 c-13 -18 -23 -39 -23 -47 0 -17 48 -100 59 -100 12 0 41
68 41 95 0 14 -12 38 -27 55 l-28 30 -22 -33z"/>
<path d="M8080 2455 c-24 -29 -24 -106 1 -145 20 -32 22 -33 35 -16 7 10 16
38 20 61 5 36 2 49 -19 79 -21 32 -26 35 -37 21z"/>
<path d="M8193 2433 c-27 -41 -29 -70 -7 -121 l15 -37 25 30 c21 26 25 38 21
83 -2 29 -10 59 -18 67 -12 11 -17 8 -36 -22z"/>
<path d="M8306 2440 c-14 -17 -26 -42 -26 -55 0 -27 30 -95 41 -95 10 0 59 83
59 99 0 7 -11 28 -24 47 l-23 35 -27 -31z"/>
<path d="M8412 2445 c-13 -28 -5 -32 23 -12 10 8 15 19 11 25 -11 18 -22 14
-34 -13z"/>
<path d="M8900 2458 c-13 -5 -35 -6 -47 -3 -59 14 14 -57 76 -76 30 -9 44 -9
66 2 15 8 28 17 29 22 0 4 -21 20 -49 36 -40 23 -55 27 -75 19z"/>
<path d="M7829 2413 c-9 -2 -19 -18 -23 -35 -8 -39 -23 -58 -42 -51 -12 4 -12
1 1 -23 8 -16 19 -52 25 -81 6 -29 15 -55 19 -58 5 -2 27 38 51 89 42 94 45
119 18 154 -11 12 -20 13 -49 5z"/>
<path d="M8424 2395 c-20 -31 -13 -58 40 -170 l33 -70 23 75 c12 41 27 81 34
89 9 12 8 14 -6 8 -20 -7 -34 8 -42 49 -5 21 -15 34 -29 38 -33 9 -35 8 -53
-19z"/>
<path d="M7125 2359 c-133 -55 -189 -99 -231 -181 -13 -26 -24 -50 -24 -54 0
-12 98 5 134 23 31 16 266 219 266 230 0 6 -19 -6 -60 -38 -55 -43 -170 -103
-170 -88 0 23 80 88 152 123 105 51 72 43 -67 -15z"/>
<path d="M9119 2374 c67 -33 170 -118 158 -130 -7 -8 -94 38 -173 91 l-69 46
55 -52 c166 -158 244 -209 316 -209 19 0 34 2 34 5 0 3 -11 27 -24 53 -43 83
-97 125 -234 182 -144 59 -166 64 -63 14z"/>
<path d="M7432 2383 c-36 -17 -72 -57 -72 -79 0 -30 88 -8 119 29 12 15 6 67
-8 67 -3 0 -21 -8 -39 -17z"/>
<path d="M8826 2374 c-4 -15 -2 -32 5 -41 31 -37 119 -59 119 -29 0 30 -74 96
-108 96 -6 0 -13 -12 -16 -26z"/>
<path d="M7545 2356 c-43 -16 -53 -23 -86 -68 -35 -49 -36 -58 -6 -58 37 0
101 43 122 82 24 44 13 59 -30 44z"/>
<path d="M8723 2354 c-14 -38 78 -123 135 -124 29 0 28 9 -7 58 -33 45 -42 52
-89 68 -27 10 -34 10 -39 -2z"/>
<path d="M7254 2322 c-122 -96 -192 -190 -210 -280 -5 -26 -3 -32 10 -32 25 0
101 39 124 63 47 51 170 216 165 221 -3 3 -34 -20 -68 -52 -35 -31 -77 -65
-94 -75 -84 -49 21 75 111 130 53 33 72 53 49 53 -5 0 -16 2 -24 5 -8 4 -36
-11 -63 -33z"/>
<path d="M7685 2339 c-8 -25 3 -114 20 -154 15 -35 51 -70 83 -80 21 -6 21 -5
11 22 -6 15 -20 59 -31 98 -20 70 -52 135 -68 135 -5 0 -12 -9 -15 -21z"/>
<path d="M8585 2333 c-10 -15 -33 -73 -51 -130 -31 -101 -31 -104 -10 -97 32
10 74 53 85 88 16 54 22 107 16 137 -8 36 -18 37 -40 2z"/>
<path d="M8978 2353 c-29 -7 -21 -18 40 -56 90 -55 195 -179 111 -130 -17 10
-60 44 -95 77 -36 32 -67 56 -70 53 -8 -7 164 -224 195 -246 25 -17 84 -41
104 -41 15 0 -2 70 -30 123 -34 62 -207 231 -232 226 -3 -1 -14 -3 -23 -6z"/>
<path d="M7600 2324 c-19 -34 -16 -105 4 -137 10 -15 22 -27 27 -27 16 0 39
59 39 102 0 48 -5 58 -36 75 -19 10 -23 8 -34 -13z"/>
<path d="M8646 2315 c-10 -38 -6 -96 9 -125 19 -36 28 -37 47 -7 24 36 29 75
17 117 -10 34 -15 39 -40 37 -18 -1 -30 -9 -33 -22z"/>
<path d="M7915 2287 c-19 -46 -19 -61 0 -97 19 -37 28 -38 43 -5 17 38 15 76
-8 110 l-19 29 -16 -37z"/>
<path d="M8018 2285 c-25 -34 -23 -84 6 -120 l23 -29 17 31 c20 41 21 87 0
118 -20 31 -24 31 -46 0z"/>
<path d="M8246 2285 c-21 -31 -20 -77 0 -118 l17 -31 23 29 c28 35 31 76 7
116 -21 35 -26 36 -47 4z"/>
<path d="M8356 2288 c-19 -27 -20 -67 -4 -103 15 -34 25 -32 45 10 14 29 15
41 4 75 -13 46 -23 49 -45 18z"/>
<path d="M8132 2261 c-25 -43 -23 -70 7 -109 l17 -24 17 25 c28 43 29 69 4
110 l-23 38 -22 -40z"/>
<path d="M7332 2214 c-57 -64 -107 -159 -116 -222 -6 -42 -6 -43 16 -36 43 13
99 55 124 92 28 41 94 152 94 158 0 2 -8 4 -18 4 -10 0 -25 -15 -36 -34 -24
-46 -108 -134 -113 -119 -8 21 25 80 81 147 45 53 53 66 37 66 -11 0 -41 -24
-69 -56z"/>
<path d="M8946 2204 c56 -67 89 -126 81 -147 -6 -15 -87 70 -112 117 -11 21
-27 36 -37 36 -10 0 -18 -2 -18 -4 0 -17 107 -180 131 -201 32 -26 99 -59 106
-51 9 9 -26 127 -50 168 -37 64 -116 148 -138 148 -16 0 -8 -14 37 -66z"/>
<path d="M7540 2227 c0 -40 -40 -181 -55 -196 -13 -14 -15 -12 -15 14 0 17 9
61 20 99 11 38 18 72 15 74 -7 7 -44 -59 -66 -117 -22 -59 -24 -171 -2 -178
24 -8 82 58 98 110 21 70 32 217 16 217 -6 0 -11 -11 -11 -23z"/>
<path d="M8753 2171 c9 -120 25 -168 68 -213 21 -22 44 -38 51 -36 23 8 22
117 -1 179 -22 56 -59 124 -66 117 -2 -2 5 -35 16 -73 10 -38 19 -83 19 -99 0
-27 -2 -29 -15 -15 -15 15 -55 156 -55 196 0 12 -5 23 -11 23 -9 0 -10 -23 -6
-79z"/>
<path d="M7581 2090 c1 -94 15 -170 34 -173 5 -1 15 18 22 42 16 56 32 201 21
201 -9 0 -14 -23 -22 -94 -4 -27 -8 -52 -11 -54 -12 -13 -20 15 -20 71 -1 34
-6 71 -13 82 -9 16 -11 2 -11 -75z"/>
<path d="M7961 2140 c-12 -19 -19 -41 -16 -48 3 -8 8 -25 11 -38 8 -32 20 -30
39 6 19 36 19 70 1 95 -13 18 -15 17 -35 -15z"/>
<path d="M8310 2145 c-14 -36 -13 -51 5 -85 20 -40 32 -38 44 6 8 28 7 43 -4
65 -21 40 -34 44 -45 14z"/>
<path d="M8715 2160 c-5 -8 -9 -43 -10 -77 -1 -92 -24 -104 -32 -16 -6 66 -12
93 -21 93 -11 0 5 -145 21 -201 7 -24 17 -44 22 -44 5 0 15 20 22 45 16 52 14
224 -2 200z"/>
<path d="M7696 2120 c8 -64 31 -142 48 -165 23 -30 37 -3 34 69 -4 72 -25 89
-30 24 l-3 -43 -18 60 c-27 89 -38 109 -31 55z"/>
<path d="M8061 2126 c-25 -40 -27 -76 -5 -117 19 -37 35 -28 59 35 15 39 15
46 1 79 -8 21 -19 37 -25 37 -5 0 -19 -15 -30 -34z"/>
<path d="M8194 2123 c-14 -33 -14 -40 1 -79 24 -63 40 -72 59 -35 9 16 16 42
16 57 0 29 -36 94 -51 94 -6 0 -17 -16 -25 -37z"/>
<path d="M8599 2118 c-6 -23 -16 -59 -23 -78 l-11 -35 -3 48 c-3 41 -5 47 -18
37 -24 -21 -18 -150 8 -150 15 0 46 80 57 149 12 76 7 91 -10 29z"/>
<path d="M8133 2023 c-24 -36 -22 -105 4 -163 l20 -45 21 58 c26 68 27 86 8
131 -19 47 -32 51 -53 19z"/>
<path d="M7982 2005 c-27 -34 -27 -46 -2 -76 20 -24 20 -24 35 -5 19 24 19 66
2 90 -13 18 -15 17 -35 -9z"/>
<path d="M8291 2013 c-15 -29 -14 -65 3 -88 14 -19 15 -19 35 -1 27 25 27 48
-3 82 -23 28 -23 28 -35 7z"/>
<path d="M8370 1962 c0 -6 -3 -17 -6 -26 -5 -12 6 -21 37 -36 24 -11 53 -20
63 -20 20 0 20 0 0 18 -41 38 -94 74 -94 64z"/>
<path d="M7875 1923 c-55 -42 -46 -54 21 -28 49 19 57 26 48 49 -9 23 -15 21
-69 -21z"/>
<path d="M8063 1931 c-7 -11 -34 -32 -60 -47 -61 -34 -77 -53 -62 -71 31 -36
98 2 124 71 19 49 17 78 -2 47z"/>
<path d="M8230 1927 c1 -26 39 -95 61 -111 29 -20 63 -21 78 -2 10 12 8 19 -8
35 -12 12 -25 21 -30 21 -5 0 -30 16 -55 35 -25 19 -46 29 -46 22z"/>
<path d="M7280 1900 c-10 -18 -8 -27 14 -58 52 -75 137 -106 144 -54 5 36 -68
114 -120 127 -21 5 -29 2 -38 -15z"/>
<path d="M8948 1890 c-74 -49 -102 -130 -45 -130 32 0 99 52 122 94 16 29 17
37 6 50 -19 22 -31 20 -83 -14z"/>
<path d="M8335 1900 c-3 -5 8 -16 24 -24 16 -9 32 -25 36 -36 4 -13 15 -20 31
-20 30 0 30 3 -3 35 -37 35 -80 57 -88 45z"/>
<path d="M7902 1868 c-48 -37 -52 -48 -19 -48 16 0 28 9 35 25 7 14 23 30 37
35 29 11 32 20 7 20 -10 0 -37 -14 -60 -32z"/>
<path d="M8087 1876 c-11 -28 -8 -65 8 -95 8 -16 17 -47 21 -69 5 -32 2 -44
-15 -61 -12 -12 -21 -23 -21 -25 0 -10 40 8 56 25 17 19 18 19 38 1 21 -19 56
-36 56 -27 0 3 -9 14 -20 25 -25 25 -25 56 0 111 21 46 25 95 11 117 -5 9 -15
-6 -31 -48 -26 -70 -37 -80 -49 -48 -36 90 -48 111 -54 94z"/>
<path d="M7792 1845 c-66 -16 -111 -43 -91 -56 22 -14 46 -11 87 10 36 18 84
62 66 60 -5 -1 -33 -7 -62 -14z"/>
<path d="M8465 1840 c24 -26 87 -60 112 -60 10 0 24 4 32 9 19 12 -24 40 -81
52 -24 6 -52 12 -63 16 l-20 6 20 -23z"/>
<path d="M7256 1829 c-2 -8 -14 -42 -25 -77 -40 -118 -24 -210 52 -299 19 -24
37 -47 39 -52 3 -8 65 -15 106 -12 29 2 9 21 -24 21 -100 0 -131 146 -42 200
52 32 103 27 144 -14 23 -23 34 -44 34 -62 0 -23 2 -26 10 -14 17 26 11 57
-16 89 -51 60 -151 65 -206 10 -16 -16 -31 -29 -33 -29 -2 0 3 19 11 43 16 46
39 78 68 94 18 10 18 11 -5 23 -13 7 -43 31 -66 53 -30 29 -44 36 -47 26z"/>
<path d="M9019 1814 c-13 -15 -41 -39 -61 -54 l-37 -27 23 -11 c22 -10 83
-118 73 -128 -3 -3 -18 8 -34 25 -56 55 -156 51 -207 -10 -27 -32 -33 -63 -16
-89 8 -12 10 -9 10 14 0 43 58 96 104 96 76 0 126 -47 126 -118 0 -58 -41
-102 -94 -102 -20 0 -36 -4 -36 -10 0 -6 27 -10 60 -10 33 0 60 4 60 9 0 5 16
29 36 53 52 61 74 113 74 180 0 51 -32 180 -50 201 -3 4 -17 -5 -31 -19z"/>
<path d="M7795 1788 c-30 -16 -31 -18 -15 -28 24 -15 37 -12 54 15 15 23 15
25 -1 25 -10 0 -27 -6 -38 -12z"/>
<path d="M7854 1765 c-19 -25 -24 -42 -20 -59 8 -32 43 -43 64 -22 15 15 15
16 -5 16 -45 0 -35 57 15 84 l27 15 -27 1 c-19 0 -35 -10 -54 -35z"/>
<path d="M8005 1747 c-28 -29 -63 -62 -78 -74 -32 -25 -35 -43 -7 -36 21 6
110 90 110 105 0 4 5 8 10 8 6 0 10 -7 10 -15 0 -30 -28 -70 -74 -104 -60 -45
-75 -81 -27 -66 36 11 81 56 106 106 28 54 30 74 12 106 -12 21 -13 21 -62
-30z"/>
<path d="M8240 1769 c-11 -25 -11 -38 0 -68 24 -70 96 -141 143 -141 15 0 15
3 5 20 -7 11 -30 32 -51 47 -40 28 -77 80 -77 109 0 13 15 3 55 -38 51 -52 95
-78 95 -56 0 5 -12 19 -27 31 -15 12 -50 46 -79 75 l-51 53 -13 -32z"/>
<path d="M8406 1781 c18 -11 35 -24 39 -30 12 -20 -5 -51 -28 -51 -20 0 -20
-1 -5 -16 10 -10 23 -14 36 -10 60 19 13 126 -55 126 -13 0 -9 -6 13 -19z"/>
<path d="M8476 1775 c9 -14 20 -25 24 -25 15 0 40 12 40 19 0 10 -46 31 -66
31 -12 0 -12 -4 2 -25z"/>
<path d="M7667 1763 c-16 -15 -5 -23 32 -23 22 0 43 -4 46 -10 3 -5 13 -10 22
-10 9 0 25 -7 35 -17 10 -9 18 -12 18 -6 0 17 -33 40 -83 57 -53 18 -61 19
-70 9z"/>
<path d="M8570 1754 c-47 -17 -80 -40 -80 -57 0 -6 8 -3 18 6 10 10 26 17 35
17 9 0 19 5 22 10 3 6 24 10 46 10 28 0 39 4 37 13 -7 18 -28 18 -78 1z"/>
<path d="M7660 1693 c-12 -16 -44 -73 -70 -129 -62 -129 -69 -135 -124 -104
-42 23 -71 23 -105 1 -19 -12 -5 -31 25 -31 13 0 51 -11 84 -25 67 -28 90 -31
90 -11 0 28 81 173 116 211 21 21 57 46 81 57 24 10 41 23 38 29 -9 13 -39 11
-53 -3 -9 -9 -12 -7 -12 10 0 33 -43 29 -70 -5z"/>
<path d="M8580 1698 c0 -17 -3 -19 -12 -10 -16 16 -48 15 -48 -1 0 -7 15 -19
34 -25 52 -19 111 -85 156 -174 22 -44 40 -87 40 -94 0 -21 32 -17 92 11 29
14 65 25 80 25 31 0 47 18 27 31 -34 22 -63 22 -105 -1 -55 -31 -62 -25 -124
104 -58 122 -83 156 -116 156 -18 0 -24 -5 -24 -22z"/>
<path d="M8135 1597 c-10 -18 -50 -65 -89 -106 -72 -74 -69 -86 9 -42 39 23
157 22 200 -1 78 -41 81 -31 13 38 -36 38 -77 85 -90 106 l-25 36 -18 -31z"/>
<path d="M8016 1544 c-32 -36 -76 -77 -98 -91 -50 -34 -36 -56 16 -24 36 23
138 128 156 161 23 43 -16 18 -74 -46z"/>
<path d="M8219 1591 c36 -66 183 -193 202 -174 6 6 -3 18 -29 36 -22 14 -66
55 -98 91 -57 64 -97 89 -75 47z"/>
<path d="M7714 1553 c3 -21 5 -44 6 -52 0 -10 3 -11 14 -2 16 13 25 2 149
-176 65 -92 72 -100 81 -77 7 19 12 11 -97 162 -67 94 -85 127 -77 137 8 10 1
16 -30 29 -22 9 -43 16 -46 16 -3 0 -3 -17 0 -37z"/>
<path d="M8547 1573 c-28 -12 -35 -18 -27 -28 8 -10 -26 -65 -136 -219 -81
-113 -150 -203 -154 -201 -5 3 -39 61 -77 130 -37 69 -70 125 -73 125 -3 0
-38 -50 -78 -111 -51 -76 -78 -109 -88 -105 -11 4 -14 -5 -14 -40 0 -40 2 -45
18 -39 9 4 30 12 46 18 26 9 27 11 12 23 -16 11 -12 20 40 99 68 101 54 107
147 -62 34 -62 64 -113 67 -112 3 0 77 102 166 227 106 150 166 226 176 224
16 -2 28 25 28 66 0 26 -3 26 -53 5z"/>
<path d="M8120 1433 c1 -12 26 -43 35 -43 9 0 34 31 35 43 0 4 -16 7 -35 7
-19 0 -35 -3 -35 -7z"/>
<path d="M7727 1375 c-26 -7 -75 -16 -107 -20 -91 -11 -76 -29 18 -22 88 7
185 33 177 47 -8 13 -28 11 -88 -5z"/>
<path d="M8496 1381 c-4 -6 15 -16 46 -26 63 -19 208 -32 208 -19 0 5 -44 17
-97 27 -54 9 -110 20 -124 23 -15 3 -30 1 -33 -5z"/>
<path d="M7460 1370 c0 -14 50 -32 69 -25 14 6 13 8 -3 21 -23 16 -66 19 -66
4z"/>
<path d="M8196 1327 c-22 -41 -27 -57 -19 -71 9 -16 12 -14 32 18 13 20 24 36
26 36 2 0 15 -18 28 -40 21 -35 26 -39 37 -25 10 12 6 25 -26 75 -22 33 -41
60 -44 60 -3 0 -19 -24 -34 -53z"/>
<path d="M8784 1366 c-16 -13 -17 -15 -3 -21 19 -7 69 11 69 25 0 15 -43 12
-66 -4z"/>
<path d="M7343 1363 c-18 -6 -16 -42 1 -49 16 -6 66 17 85 40 12 14 8 16 -30
15 -24 0 -50 -3 -56 -6z"/>
<path d="M8882 1358 c3 -7 21 -22 42 -33 37 -20 37 -20 52 0 13 18 13 21 -3
32 -23 17 -96 17 -91 1z"/>
<path d="M7413 1323 c-27 -18 -30 -41 -7 -50 15 -5 74 41 74 59 0 13 -44 8
-67 -9z"/>
<path d="M8830 1333 c0 -12 53 -63 66 -63 6 0 17 6 23 14 9 11 6 18 -18 35
-28 20 -71 29 -71 14z"/>
<path d="M7482 1307 c-29 -31 -28 -41 5 -32 34 8 53 23 53 41 0 22 -34 16 -58
-9z"/>
<path d="M8770 1321 c0 -23 63 -61 77 -47 10 10 -39 56 -59 56 -10 0 -18 -4
-18 -9z"/>
<path d="M8011 1176 c-10 -12 -6 -25 26 -70 21 -30 40 -55 43 -56 3 0 18 24
34 54 22 41 26 57 18 72 -9 17 -12 15 -28 -19 -10 -20 -21 -37 -24 -37 -4 0
-18 16 -32 35 -21 30 -27 33 -37 21z"/>
<path d="M8346 1175 c-3 -9 -3 -21 0 -27 3 -5 -2 -15 -12 -22 -16 -12 -15 -14
12 -23 16 -6 37 -14 47 -18 15 -6 17 -1 17 40 0 33 -4 45 -12 42 -7 -2 -20 2
-29 10 -14 12 -17 12 -23 -2z"/>
</g>
</svg>
